<mxfile host="seqgen" agent="seqgen" version="26.2.2"><diagram name="Diagram" id="1001"><mxGraphModel dx="0" dy="0" grid="1" gridSize="10" guides="1" tooltips="1" connect="1" arrows="1" fold="1" page="0" pageScale="1" pageWidth="850" pageHeight="1100" background="#ffffff" math="0" shadow="0"><root><mxCell id="0" /><mxCell id="1" parent="0" /><mxCell id="1002" value="Sequence Diagram" parent="1" style="shape=umlFrame;whiteSpace=wrap;html=1;pointerEvents=0;width=160;height=40;" vertex="1"><mxGeometry x="-30" y="-70" width="620" height="520" as="geometry" /></mxCell><mxCell id="1003" value="A" parent="1" style="shape=umlLifeline;perimeter=lifelinePerimeter;whiteSpace=wrap;html=1;container=1;dropTarget=0;collapsible=0;recursiveResize=0;outlineConnect=0;portConstraint=eastwest;newEdgeStyle={&quot;curved&quot;:0,&quot;rounded&quot;:0};" vertex="1"><mxGeometry x="0" y="0" width="160" height="420" as="geometry" /></mxCell><mxCell id="1004" value="B" parent="1" style="shape=umlLifeline;perimeter=lifelinePerimeter;whiteSpace=wrap;html=1;container=1;dropTarget=0;collapsible=0;recursiveResize=0;outlineConnect=0;portConstraint=eastwest;newEdgeStyle={&quot;curved&quot;:0,&quot;rounded&quot;:0};" vertex="1"><mxGeometry x="200" y="0" width="160" height="420" as="geometry" /></mxCell><mxCell id="1005" value="C" parent="1" style="shape=umlLifeline;perimeter=lifelinePerimeter;whiteSpace=wrap;html=1;container=1;dropTarget=0;collapsible=0;recursiveResize=0;outlineConnect=0;portConstraint=eastwest;newEdgeStyle={&quot;curved&quot;:0,&quot;rounded&quot;:0};" vertex="1"><mxGeometry x="400" y="0" width="160" height="420" as="geometry" /></mxCell><mxCell id="1006" value="" parent="1003" style="html=1;points=[[0,0,0,0,5],[0,1,0,0,-5],[1,0,0,0,5],[1,1,0,0,-5]];perimeter=orthogonalPerimeter;outlineConnect=0;targetShapes=umlLifeline;portConstraint=eastwest;newEdgeStyle={&quot;curved&quot;:0,&quot;rounded&quot;:0};" vertex="1"><mxGeometry x="75.0" y="60" width="10" height="40" as="geometry" /></mxCell><mxCell id="1007" value="" parent="1003" style="html=1;points=[[0,0,0,0,5],[0,1,0,0,-5],[1,0,0,0,5],[1,1,0,0,-5]];perimeter=orthogonalPerimeter;outlineConnect=0;targetShapes=umlLifeline;portConstraint=eastwest;newEdgeStyle={&quot;curved&quot;:0,&quot;rounded&quot;:0};" vertex="1"><mxGeometry x="75.0" y="110" width="10" height="80" as="geometry" /></mxCell><mxCell id="1008" value="" parent="1003" style="html=1;points=[[0,0,0,0,5],[0,1,0,0,-5],[1,0,0,0,5],[1,1,0,0,-5]];perimeter=orthogonalPerimeter;outlineConnect=0;targetShapes=umlLifeline;portConstraint=eastwest;newEdgeStyle={&quot;curved&quot;:0,&quot;rounded&quot;:0};" vertex="1"><mxGeometry x="80.0" y="120" width="10" height="60" as="geometry" /></mxCell><mxCell id="1009" value="" parent="1003" style="html=1;points=[[0,0,0,0,5],[0,1,0,0,-5],[1,0,0,0,5],[1,1,0,0,-5]];perimeter=orthogonalPerimeter;outlineConnect=0;targetShapes=umlLifeline;portConstraint=eastwest;newEdgeStyle={&quot;curved&quot;:0,&quot;rounded&quot;:0};" vertex="1"><mxGeometry x="85.0" y="130" width="10" height="40" as="geometry" /></mxCell><mxCell id="1010" value="" parent="1003" style="html=1;points=[[0,0,0,0,5],[0,1,0,0,-5],[1,0,0,0,5],[1,1,0,0,-5]];perimeter=orthogonalPerimeter;outlineConnect=0;targetShapes=umlLifeline;portConstraint=eastwest;newEdgeStyle={&quot;curved&quot;:0,&quot;rounded&quot;:0};" vertex="1"><mxGeometry x="75.0" y="200" width="10" height="170" as="geometry" /></mxCell><mxCell id="1011" value="" parent="1004" style="html=1;points=[[0,0,0,0,5],[0,1,0,0,-5],[1,0,0,0,5],[1,1,0,0,-5]];perimeter=orthogonalPerimeter;outlineConnect=0;targetShapes=umlLifeline;portConstraint=eastwest;newEdgeStyle={&quot;curved&quot;:0,&quot;rounded&quot;:0};" vertex="1"><mxGeometry x="75.0" y="210" width="10" height="170" as="geometry" /></mxCell><mxCell id="1012" value="" parent="1005" style="html=1;points=[[0,0,0,0,5],[0,1,0,0,-5],[1,0,0,0,5],[1,1,0,0,-5]];perimeter=orthogonalPerimeter;outlineConnect=0;targetShapes=umlLifeline;portConstraint=eastwest;newEdgeStyle={&quot;curved&quot;:0,&quot;rounded&quot;:0};" vertex="1"><mxGeometry x="75.0" y="220" width="10" height="170" as="geometry" /></mxCell><mxCell id="1013" value="" parent="1004" style="html=1;points=[[0,0,0,0,5],[0,1,0,0,-5],[1,0,0,0,5],[1,1,0,0,-5]];perimeter=orthogonalPerimeter;outlineConnect=0;targetShapes=umlLifeline;portConstraint=eastwest;newEdgeStyle={&quot;curved&quot;:0,&quot;rounded&quot;:0};" vertex="1"><mxGeometry x="70.0" y="230" width="10" height="30" as="geometry" /></mxCell><mxCell id="1014" value="" parent="1" style="html=1;curved=0;rounded=0;verticalAlign=bottom;endArrow=block;dashed=0;entryX=0;entryY=0;entryDx=0;entryDy=5;" edge="1" source="1010" target="1013"><mxGeometry relative="1" as="geometry"><mxPoint as="sourcePoint" /></mxGeometry></mxCell><mxCell id="1015" value="" parent="1004" style="html=1;points=[[0,0,0,0,5],[0,1,0,0,-5],[1,0,0,0,5],[1,1,0,0,-5]];perimeter=orthogonalPerimeter;outlineConnect=0;targetShapes=umlLifeline;portConstraint=eastwest;newEdgeStyle={&quot;curved&quot;:0,&quot;rounded&quot;:0};" vertex="1"><mxGeometry x="80.0" y="270" width="10" height="30" as="geometry" /></mxCell><mxCell id="1016" value="" parent="1" style="html=1;curved=0;rounded=0;verticalAlign=bottom;endArrow=block;dashed=0;entryX=1;entryY=0;entryDx=0;entryDy=5;" edge="1" source="1012" target="1015"><mxGeometry relative="1" as="geometry"><mxPoint as="sourcePoint" /></mxGeometry></mxCell><mxCell id="1017" value="" parent="1004" style="html=1;points=[[0,0,0,0,5],[0,1,0,0,-5],[1,0,0,0,5],[1,1,0,0,-5]];perimeter=orthogonalPerimeter;outlineConnect=0;targetShapes=umlLifeline;portConstraint=eastwest;newEdgeStyle={&quot;curved&quot;:0,&quot;rounded&quot;:0};" vertex="1"><mxGeometry x="70.0" y="310" width="10" height="50" as="geometry" /></mxCell><mxCell id="1018" value="" parent="1" style="html=1;curved=0;rounded=0;verticalAlign=bottom;endArrow=block;dashed=0;entryX=0;entryY=0;entryDx=0;entryDy=5;" edge="1" source="1010" target="1017"><mxGeometry relative="1" as="geometry"><mxPoint as="sourcePoint" /></mxGeometry></mxCell><mxCell id="1019" value="" parent="1004" style="html=1;points=[[0,0,0,0,5],[0,1,0,0,-5],[1,0,0,0,5],[1,1,0,0,-5]];perimeter=orthogonalPerimeter;outlineConnect=0;targetShapes=umlLifeline;portConstraint=eastwest;newEdgeStyle={&quot;curved&quot;:0,&quot;rounded&quot;:0};" vertex="1"><mxGeometry x="65.0" y="320" width="10" height="30" as="geometry" /></mxCell><mxCell id="1020" value="" parent="1" style="html=1;curved=0;rounded=0;verticalAlign=bottom;endArrow=block;dashed=0;entryX=1;entryY=0;entryDx=0;entryDy=5;" edge="1" source="1012" target="1019"><mxGeometry relative="1" as="geometry"><mxPoint as="sourcePoint" /></mxGeometry></mxCell></root></mxGraphModel></diagram></mxfile>